HIERARCHY
ROOT Root
{
  OFFSET 0.0 0.0 0.0
  CHANNELS 6 Xposition Yposition Zposition Zrotation Yrotation Xrotation
  JOINT Hips
  {
    OFFSET 0.0 100.0 0.0
    CHANNELS 6 Xposition Yposition Zposition Zrotation Yrotation Xrotation
    JOINT Spine1
    {
      OFFSET 5.003913 -0.037094 -0.013727
      CHANNELS 3 Zrotation Yrotation Xrotation
      JOINT Spine2
      {
        OFFSET 7.125363 -1e-06 0.0
        CHANNELS 3 Zrotation Yrotation Xrotation
        JOINT Chest
        {
          OFFSET 7.594027 1e-06 0.0
          CHANNELS 3 Zrotation Yrotation Xrotation
          JOINT Neck1
          {
            OFFSET 26.313086 -0.460272 -0.181672
            CHANNELS 3 Zrotation Yrotation Xrotation
            JOINT Neck2
            {
              OFFSET 8.045911 0.0 0.0
              CHANNELS 3 Zrotation Yrotation Xrotation
              JOINT Head
              {
                OFFSET 6.432774 0.0 0.0
                CHANNELS 3 Zrotation Yrotation Xrotation
                JOINT HeadEnd
                {
                  OFFSET 16.169773 0.06451 0.00362
                  CHANNELS 3 Zrotation Yrotation Xrotation
                }
                JOINT Jaw
                {
                  OFFSET 0.108741 3.12938 0.002639
                  CHANNELS 3 Zrotation Yrotation Xrotation
                }
                JOINT LeftEye
                {
                  OFFSET 4.45173 8.166359 3.206392
                  CHANNELS 3 Zrotation Yrotation Xrotation
                }
                JOINT RightEye
                {
                  OFFSET 4.436895 8.135758 -3.222429
                  CHANNELS 3 Zrotation Yrotation Xrotation
                }
              }
            }
          }
          JOINT LeftShoulder
          {
            OFFSET 23.218927 5.195579 1.621656
            CHANNELS 3 Zrotation Yrotation Xrotation
            JOINT LeftArm
            {
              OFFSET 15.902118 2e-06 -2e-06
              CHANNELS 3 Zrotation Yrotation Xrotation
              JOINT LeftForeArm
              {
                OFFSET 28.739307 0.0 -1e-06
                CHANNELS 3 Zrotation Yrotation Xrotation
                JOINT LeftHand
                {
                  OFFSET 27.093981 -4e-06 0.0
                  CHANNELS 3 Zrotation Yrotation Xrotation
                  JOINT LeftHandThumb1
                  {
                    OFFSET 2.276781 3.380274 0.83384
                    CHANNELS 3 Zrotation Yrotation Xrotation
                    JOINT LeftHandThumb2
                    {
                      OFFSET 4.705309 -1e-06 -1e-06
                      CHANNELS 3 Zrotation Yrotation Xrotation
                      JOINT LeftHandThumb3
                      {
                        OFFSET 2.798515 0.0 3e-06
                        CHANNELS 3 Zrotation Yrotation Xrotation
                        JOINT LeftHandThumbEnd
                        {
                          OFFSET 3.180793 4e-06 -4e-06
                          CHANNELS 3 Zrotation Yrotation Xrotation
                        }
                      }
                    }
                  }
                  JOINT LeftHandIndex1
                  {
                    OFFSET 3.247786 2.352677 0.137192
                    CHANNELS 3 Zrotation Yrotation Xrotation
                    JOINT LeftHandIndex2
                    {
                      OFFSET 6.367095 1e-06 0.0
                      CHANNELS 3 Zrotation Yrotation Xrotation
                      JOINT LeftHandIndex3
                      {
                        OFFSET 3.662364 0.0 0.0
                        CHANNELS 3 Zrotation Yrotation Xrotation
                        JOINT LeftHandIndex4
                        {
                          OFFSET 2.329242 4e-06 -4e-06
                          CHANNELS 3 Zrotation Yrotation Xrotation
                          JOINT LeftHandIndexEnd
                          {
                            OFFSET 2.767823 1e-06 0.0
                            CHANNELS 3 Zrotation Yrotation Xrotation
                          }
                        }
                      }
                    }
                  }
                  JOINT LeftHandMiddle1
                  {
                    OFFSET 3.163612 0.945023 -0.406112
                    CHANNELS 3 Zrotation Yrotation Xrotation
                    JOINT LeftHandMiddle2
                    {
                      OFFSET 6.276789 3e-06 0.0
                      CHANNELS 3 Zrotation Yrotation Xrotation
                      JOINT LeftHandMiddle3
                      {
                        OFFSET 4.35652 -1e-06 4e-06
                        CHANNELS 3 Zrotation Yrotation Xrotation
                        JOINT LeftHandMiddle4
                        {
                          OFFSET 2.996877 0.0 8e-06
                          CHANNELS 3 Zrotation Yrotation Xrotation
                          JOINT LeftHandMiddleEnd
                          {
                            OFFSET 2.323256 3e-06 -4e-06
                            CHANNELS 3 Zrotation Yrotation Xrotation
                          }
                        }
                      }
                    }
                  }
                  JOINT LeftHandRing1
                  {
                    OFFSET 2.882606 -0.309162 0.107445
                    CHANNELS 3 Zrotation Yrotation Xrotation
                    JOINT LeftHandRing2
                    {
                      OFFSET 6.033198 0.0 4e-06
                      CHANNELS 3 Zrotation Yrotation Xrotation
                      JOINT LeftHandRing3
                      {
                        OFFSET 4.350578 3e-06 0.0
                        CHANNELS 3 Zrotation Yrotation Xrotation
                        JOINT LeftHandRing4
                        {
                          OFFSET 2.651321 2e-06 -7e-06
                          CHANNELS 3 Zrotation Yrotation Xrotation
                          JOINT LeftHandRingEnd
                          {
                            OFFSET 1.937663 1e-06 -4e-06
                            CHANNELS 3 Zrotation Yrotation Xrotation
                          }
                        }
                      }
                    }
                  }
                  JOINT LeftHandPinky1
                  {
                    OFFSET 2.865315 -1.525436 0.575687
                    CHANNELS 3 Zrotation Yrotation Xrotation
                    JOINT LeftHandPinky2
                    {
                      OFFSET 5.54936 1e-06 -8e-06
                      CHANNELS 3 Zrotation Yrotation Xrotation
                      JOINT LeftHandPinky3
                      {
                        OFFSET 3.070974 0.0 -4e-06
                        CHANNELS 3 Zrotation Yrotation Xrotation
                        JOINT LeftHandPinky4
                        {
                          OFFSET 1.549672 1e-06 0.0
                          CHANNELS 3 Zrotation Yrotation Xrotation
                          JOINT LeftHandPinkyEnd
                          {
                            OFFSET 1.952123 0.0 0.0
                            CHANNELS 3 Zrotation Yrotation Xrotation
                          }
                        }
                      }
                    }
                  }
                }
              }
            }
          }
          JOINT RightShoulder
          {
            OFFSET 23.161716 5.296122 -1.380114
            CHANNELS 3 Zrotation Yrotation Xrotation
            JOINT RightArm
            {
              OFFSET -16.027195 -2e-06 1.1e-05
              CHANNELS 3 Zrotation Yrotation Xrotation
              JOINT RightForeArm
              {
                OFFSET -28.736639 4e-06 2e-06
                CHANNELS 3 Zrotation Yrotation Xrotation
                JOINT RightHand
                {
                  OFFSET -27.133619 6e-06 0.0
                  CHANNELS 3 Zrotation Yrotation Xrotation
                  JOINT RightHandThumb1
                  {
                    OFFSET -2.274328 -3.351035 -0.83067
                    CHANNELS 3 Zrotation Yrotation Xrotation
                    JOINT RightHandThumb2
                    {
                      OFFSET -4.703594 -3e-06 2e-06
                      CHANNELS 3 Zrotation Yrotation Xrotation
                      JOINT RightHandThumb3
                      {
                        OFFSET -2.794935 -4e-06 -3e-06
                        CHANNELS 3 Zrotation Yrotation Xrotation
                        JOINT RightHandThumbEnd
                        {
                          OFFSET -3.183852 4e-06 1e-06
                          CHANNELS 3 Zrotation Yrotation Xrotation
                        }
                      }
                    }
                  }
                  JOINT RightHandIndex1
                  {
                    OFFSET -3.253496 -2.33755 -0.127667
                    CHANNELS 3 Zrotation Yrotation Xrotation
                    JOINT RightHandIndex2
                    {
                      OFFSET -6.344434 0.0 0.0
                      CHANNELS 3 Zrotation Yrotation Xrotation
                      JOINT RightHandIndex3
                      {
                        OFFSET -3.654871 0.0 -8e-06
                        CHANNELS 3 Zrotation Yrotation Xrotation
                        JOINT RightHandIndex4
                        {
                          OFFSET -2.327586 -1e-06 0.0
                          CHANNELS 3 Zrotation Yrotation Xrotation
                          JOINT RightHandIndexEnd
                          {
                            OFFSET -2.770001 3e-06 8e-06
                            CHANNELS 3 Zrotation Yrotation Xrotation
                          }
                        }
                      }
                    }
                  }
                  JOINT RightHandMiddle1
                  {
                    OFFSET -3.168223 -0.944764 0.411762
                    CHANNELS 3 Zrotation Yrotation Xrotation
                    JOINT RightHandMiddle2
                    {
                      OFFSET -6.266691 -1e-06 -4e-06
                      CHANNELS 3 Zrotation Yrotation Xrotation
                      JOINT RightHandMiddle3
                      {
                        OFFSET -4.348901 0.0 0.0
                        CHANNELS 3 Zrotation Yrotation Xrotation
                        JOINT RightHandMiddle4
                        {
                          OFFSET -3.00024 2e-06 -4e-06
                          CHANNELS 3 Zrotation Yrotation Xrotation
                          JOINT RightHandMiddleEnd
                          {
                            OFFSET -2.321477 -4e-06 -4e-06
                            CHANNELS 3 Zrotation Yrotation Xrotation
                          }
                        }
                      }
                    }
                  }
                  JOINT RightHandRing1
                  {
                    OFFSET -2.885654 0.293261 -0.119232
                    CHANNELS 3 Zrotation Yrotation Xrotation
                    JOINT RightHandRing2
                    {
                      OFFSET -6.032835 -1e-06 -4e-06
                      CHANNELS 3 Zrotation Yrotation Xrotation
                      JOINT RightHandRing3
                      {
                        OFFSET -4.33881 0.0 -4e-06
                        CHANNELS 3 Zrotation Yrotation Xrotation
                        JOINT RightHandRing4
                        {
                          OFFSET -2.654903 -4e-06 -4e-06
                          CHANNELS 3 Zrotation Yrotation Xrotation
                          JOINT RightHandRingEnd
                          {
                            OFFSET -1.935122 0.0 4e-06
                            CHANNELS 3 Zrotation Yrotation Xrotation
                          }
                        }
                      }
                    }
                  }
                  JOINT RightHandPinky1
                  {
                    OFFSET -2.866241 1.503904 -0.60527
                    CHANNELS 3 Zrotation Yrotation Xrotation
                    JOINT RightHandPinky2
                    {
                      OFFSET -5.553177 -2e-06 0.0
                      CHANNELS 3 Zrotation Yrotation Xrotation
                      JOINT RightHandPinky3
                      {
                        OFFSET -3.062664 -1e-06 -4e-06
                        CHANNELS 3 Zrotation Yrotation Xrotation
                        JOINT RightHandPinky4
                        {
                          OFFSET -1.546529 2e-06 4e-06
                          CHANNELS 3 Zrotation Yrotation Xrotation
                          JOINT RightHandPinkyEnd
                          {
                            OFFSET -1.952341 0.0 -4e-06
                            CHANNELS 3 Zrotation Yrotation Xrotation
                          }
                        }
                      }
                    }
                  }
                }
              }
            }
          }
        }
      }
    }
    JOINT LeftLeg
    {
      OFFSET -8.443107 2.567604 10.043214
      CHANNELS 3 Zrotation Yrotation Xrotation
      JOINT LeftShin
      {
        OFFSET 43.229198 1e-06 -1e-06
        CHANNELS 3 Zrotation Yrotation Xrotation
        JOINT LeftFoot
        {
          OFFSET 42.298611 1e-06 1e-06
          CHANNELS 3 Zrotation Yrotation Xrotation
          JOINT LeftToeBase
          {
            OFFSET 14.165858 1e-06 0.0
            CHANNELS 3 Zrotation Yrotation Xrotation
            JOINT LeftToeEnd
            {
              OFFSET 6.7141 -0.234461 0.0
              CHANNELS 3 Zrotation Yrotation Xrotation
            }
          }
        }
      }
    }
    JOINT RightLeg
    {
      OFFSET -8.303923 2.592729 -10.047278
      CHANNELS 3 Zrotation Yrotation Xrotation
      JOINT RightShin
      {
        OFFSET -43.369682 0.0 1e-06
        CHANNELS 3 Zrotation Yrotation Xrotation
        JOINT RightFoot
        {
          OFFSET -42.260784 4e-06 2e-06
          CHANNELS 3 Zrotation Yrotation Xrotation
          JOINT RightToeBase
          {
            OFFSET -14.222245 -2e-06 -1e-06
            CHANNELS 3 Zrotation Yrotation Xrotation
            JOINT RightToeEnd
            {
              OFFSET -6.660062 0.232574 -2e-06
              CHANNELS 3 Zrotation Yrotation Xrotation
            }
          }
        }
      }
    }
  }
}
MOTION
Frames: 4
Frame Time: 0.03333333333333333
0.0 0.0 0.0 0.0 -0.0 0.0 -2.537581 99.99263 -1.769134 88.737846 5.011141 89.357895 3.152729 1.070036 0.310245 -9.938166 -0.535837 -0.206051 15.508081 0.701158 -2.670686 17.572618 -2.646702 2.39436 -2.352763 -0.887574 -1.387723 -40.935932 -1.642256 -1.717434 4e-06 0.0 -0.0 0.073671 -0.014114 -0.078064 0.192378 -0.101643 -0.120817 0.173435 0.072844 -0.024773 -107.851974 -76.001297 126.954628 35.865475 -42.914291 14.535621 34.490551 -0.035969 0.018914 -1.481776 -1.312772 15.148168 17.636631 -26.322731 52.411201 -19.466658 -14.395597 29.410389 -0.0 -8.774821 -1e-06 16.111641 -17.588806 6.005806 -0.609776 -1.795654 -3.889327 -4.807089 -11.046809 -2.937849 4e-06 -20.976019 2e-06 -5.01997 -25.03356 -4.031884 7e-06 1e-06 1e-06 -10.634535 -5.68697 -3.565587 10.573274 -17.922951 -3.113899 2e-06 -13.821209 2e-06 -0.501779 -31.181501 -4.027016 -11.797189 -60.072403 7.622406 -13.982716 -7.150198 -2.875043 13.772731 -8.40149 -3.21824 0.347732 -34.211555 0.771656 -0.963032 -17.73337 2.621021 1e-06 1e-06 -0.0 -17.346416 -20.095215 -4.201782 21.757557 -1.638375 3.866429 1e-06 -6.338824 2e-06 -1.697589 -22.591749 -6.19401 1e-06 -3e-06 -2e-06 77.127701 -79.949379 121.241325 27.678089 -52.329624 12.82873 33.426029 0.332313 -0.057045 -0.368545 5.097913 -1.673206 22.18211 -20.375887 49.933315 -16.701815 -16.743528 28.476528 -3e-06 -12.690599 0.0 16.536629 -17.676853 2.321191 -0.105918 -1.513857 -4.275882 -5.039039 -5.612873 -2.953556 5e-06 -11.020525 -4e-06 -6.111296 -15.895334 -3.84047 -0.0 -0.0 -1e-06 -10.283369 -5.680289 -4.341839 11.028293 -11.302403 -2.372632 -1.384268 -14.238579 -6.320121 -0.625436 -26.924185 -3.827601 -3.762261 -49.719322 -4.045549 -13.708522 -7.363478 -3.720937 18.14115 -14.052739 -3.242675 7e-06 -18.78727 -4e-06 -0.429711 -8.456042 2.555501 -0.0 -1e-06 -0.0 -15.923532 -20.094482 -5.473584 30.41921 -7.190826 1.735925 4e-06 -8.162925 -2e-06 -1.861899 -22.861473 -6.167946 -0.0 -1e-06 -1e-06 177.085388 -15.073484 -6.833839 61.692829 -0.45352 0.451506 -72.029533 7.991501 -4.788558 -13.32513 1.827315 2.288011 -1.000001 -0.0 -0.0 -6.522668 -0.192806 -15.17856 16.220556 0.15419 -0.08027 -71.611511 0.973196 -0.730547 -6.617044 0.723452 1.60403 -1.000002 0.0 0.0 
0.0 0.0 0.0 0.0 -0.0 0.0 -3.327616 100.023941 0.562344 88.380104 5.408328 88.207649 3.330006 1.301771 0.359942 -9.849142 -0.455668 -0.064607 15.470297 0.726272 -2.54209 17.738134 -3.119661 2.435198 -2.321671 -0.846998 -1.183886 -40.865345 -1.512534 -1.463864 5e-06 0.0 -0.0 0.068253 -0.022321 -0.090173 0.191554 -0.103382 -0.131344 0.170121 0.057006 -0.039118 -107.767326 -75.418564 127.046341 35.943642 -43.185505 14.504683 34.758781 -0.045899 0.056025 -1.213782 -1.358585 14.950881 17.636625 -26.322729 52.411194 -19.466658 -14.395596 29.410385 -1e-06 -8.774819 -1e-06 15.969119 -17.579353 6.047202 -0.609776 -1.795653 -3.889326 -4.807087 -11.04681 -2.937852 5e-06 -20.976015 1e-06 -5.019969 -25.033558 -4.031881 5e-06 -1e-06 0.0 -10.634533 -5.686969 -3.565589 10.573272 -17.922947 -3.113899 2e-06 -13.821206 1e-06 -0.501777 -31.181501 -4.027017 -11.775662 -60.056179 7.507011 -13.982712 -7.150197 -2.875042 13.772727 -8.401489 -3.21824 0.347734 -34.211544 0.771653 -0.963029 -17.733366 2.62102 -2e-06 1e-06 -0.0 -17.346413 -20.095215 -4.201782 21.757555 -1.638374 3.866428 1e-06 -6.338823 1e-06 -1.697589 -22.591743 -6.194006 1e-06 -4e-06 -2e-06 78.27253 -80.117302 120.199158 27.971292 -52.439445 12.273219 33.462414 0.286132 0.023438 -0.275061 5.402879 -1.670279 22.182121 -20.375898 49.933327 -16.701817 -16.74353 28.476538 -3e-06 -12.690601 -1e-06 16.509663 -17.642874 2.339686 -0.105919 -1.513854 -4.275881 -5.039041 -5.612871 -2.953557 5e-06 -11.020525 -3e-06 -6.111297 -15.89533 -3.84047 -0.0 0.0 0.0 -10.283371 -5.680287 -4.341839 11.028296 -11.302404 -2.372632 -1.384269 -14.238579 -6.320121 -0.625436 -26.924187 -3.827602 -3.791607 -49.736298 -3.962834 -13.708524 -7.363474 -3.720942 18.141148 -14.052739 -3.24267 6e-06 -18.78727 -1e-06 -0.429711 -8.456045 2.555505 0.0 -1e-06 -1e-06 -15.923534 -20.094482 -5.473585 30.41921 -7.190826 1.735924 4e-06 -8.162925 -1e-06 -1.861903 -22.861467 -6.167938 -0.0 -4e-06 -1e-06 175.546402 -15.079009 -6.91572 61.700897 -0.382167 0.438624 -73.609413 6.916998 -4.862849 -11.903459 1.804678 2.30312 -0.999999 -0.0 -0.0 -4.744066 0.715905 -14.736266 16.518507 0.149437 -0.092434 -73.204826 1.604508 -0.531798 -6.526528 0.737696 1.628407 -1.000002 -0.0 -0.0 
0.0 0.0 0.0 0.0 -0.0 0.0 -3.991783 100.012207 2.718831 88.08345 5.661691 87.075958 3.416524 1.480879 0.401887 -9.781428 -0.381112 0.029995 15.501697 0.675762 -2.376781 17.829453 -3.587278 2.492264 -2.348753 -0.789106 -0.979448 -40.662518 -1.428938 -1.236297 7e-06 0.0 -0.0 0.062477 -0.025424 -0.107454 0.172704 -0.10681 -0.146218 0.149084 0.053026 -0.059992 -107.994789 -74.878403 127.458763 35.778843 -43.39468 14.712897 35.338306 -0.019605 0.072402 -0.872074 -1.309679 14.419243 17.636631 -26.322733 52.411205 -19.466658 -14.395594 29.410393 -1e-06 -8.77482 -3e-06 15.923122 -17.65843 6.06385 -0.609777 -1.795656 -3.889326 -4.807088 -11.046807 -2.937852 4e-06 -20.976013 1e-06 -5.01997 -25.033556 -4.031882 7e-06 1e-06 -0.0 -10.634533 -5.686973 -3.56559 10.573272 -17.922947 -3.113899 2e-06 -13.821209 2e-06 -0.501777 -31.181501 -4.027019 -11.742977 -59.984436 7.391997 -13.982713 -7.150198 -2.875044 13.772728 -8.401489 -3.21824 0.347733 -34.211544 0.771655 -0.963031 -17.733368 2.62102 1e-06 2e-06 -0.0 -17.346418 -20.095217 -4.201783 21.757557 -1.638374 3.86643 1e-06 -6.338823 2e-06 -1.69759 -22.591751 -6.194009 2e-06 -2e-06 -5e-06 78.911278 -80.244377 119.630844 28.096848 -52.526379 12.215446 33.670273 0.278316 0.084077 -0.244696 5.699332 -1.856956 22.182114 -20.375893 49.933323 -16.701805 -16.743526 28.476528 -2e-06 -12.690599 -0.0 16.439137 -17.579098 2.36459 -0.105919 -1.513852 -4.275883 -5.03904 -5.612869 -2.953556 5e-06 -11.020523 -2e-06 -6.111296 -15.89533 -3.840471 0.0 -0.0 -2e-06 -10.283369 -5.680285 -4.341839 11.028294 -11.302402 -2.372633 -1.38427 -14.238576 -6.32012 -0.625438 -26.924181 -3.8276 -3.814959 -49.6259 -3.929224 -13.70852 -7.363472 -3.720938 18.141146 -14.052737 -3.242671 5e-06 -18.787266 -0.0 -0.429712 -8.456043 2.555502 -0.0 -2e-06 1e-06 -15.923531 -20.094479 -5.473588 30.41921 -7.190824 1.735927 3e-06 -8.162922 -1e-06 -1.861906 -22.861467 -6.167941 -0.0 -3e-06 -1e-06 173.798264 -14.971799 -7.292969 59.812897 -0.27039 0.372927 -75.094315 5.190814 -4.872286 -11.344171 1.779595 2.263085 -1.000002 -0.0 -0.0 -3.020344 1.445661 -14.315712 16.420963 0.158949 -0.102084 -74.621811 2.320046 -0.38235 -6.442426 0.771989 1.655339 -1.000001 0.0 0.0 
0.0 0.0 0.0 0.0 -0.0 0.0 -4.591652 99.972168 4.713369 87.785072 5.782853 86.00708 3.49811 1.662076 0.414974 -9.738883 -0.302323 0.138914 15.535869 0.575318 -2.216027 17.796122 -4.029637 2.543684 -2.39803 -0.770671 -0.686848 -40.472805 -1.300168 -1.043363 6e-06 0.0 -0.0 0.053449 -0.024496 -0.114329 0.146633 -0.10636 -0.151108 0.123169 0.053029 -0.070993 -108.127792 -74.391403 127.763512 35.497787 -43.62479 15.165876 36.05476 0.036034 0.102638 -0.420635 -1.158026 13.918018 17.636625 -26.322741 52.411194 -19.46666 -14.395597 29.410389 -1e-06 -8.774821 -1e-06 15.912274 -17.762848 6.069412 -0.609776 -1.795654 -3.889328 -4.807087 -11.046809 -2.937848 5e-06 -20.976015 3e-06 -5.019971 -25.033556 -4.031878 7e-06 1e-06 -0.0 -10.634533 -5.68697 -3.565585 10.573274 -17.922953 -3.113898 2e-06 -13.821211 3e-06 -0.501779 -31.181511 -4.027013 -11.616609 -59.932724 7.280485 -13.982713 -7.150198 -2.875041 13.772731 -8.401493 -3.218241 0.347734 -34.211555 0.771657 -0.96303 -17.73337 2.621022 1e-06 -0.0 -0.0 -17.346413 -20.095215 -4.201779 21.757557 -1.638377 3.866428 1e-06 -6.338824 1e-06 -1.697589 -22.591749 -6.194004 1e-06 -2e-06 -4e-06 79.405655 -80.455666 119.149124 28.067049 -52.738838 12.61723 33.910049 0.325887 0.131727 -0.248287 5.74886 -2.075815 22.182119 -20.375896 49.933327 -16.701815 -16.743528 28.476532 -3e-06 -12.690601 -2e-06 16.380512 -17.531027 2.380807 -0.10592 -1.513855 -4.275884 -5.039041 -5.612872 -2.953557 5e-06 -11.020525 -2e-06 -6.111297 -15.89533 -3.840469 -0.0 0.0 1e-06 -10.283371 -5.680288 -4.341842 11.028294 -11.302405 -2.372633 -1.384269 -14.23858 -6.320119 -0.625436 -26.924187 -3.827603 -3.865129 -49.518677 -3.915058 -13.708524 -7.363475 -3.720941 18.14115 -14.052739 -3.242675 7e-06 -18.78727 -0.0 -0.42971 -8.456044 2.555503 -1e-06 1e-06 -1e-06 -15.923534 -20.094482 -5.473588 30.41921 -7.190827 1.73593 4e-06 -8.162925 -2e-06 -1.861904 -22.861465 -6.167941 -0.0 -4e-06 -1e-06 171.954163 -14.859741 -7.858553 56.045208 -0.165227 0.2749 -75.978233 3.712805 -5.055715 -11.069153 1.748091 2.202457 -0.999998 0.0 0.0 -1.303569 2.159774 -13.752597 15.853707 0.165367 -0.109031 -75.825882 2.869298 -0.294369 -6.351326 0.796639 1.675046 -1.000001 -0.0 -0.0 
